<?xml version="1.0" standalone="no"?>
<!DOCTYPE svg PUBLIC "-//W3C//DTD SVG 20010904//EN"
 "http://www.w3.org/TR/2001/REC-SVG-20010904/DTD/svg10.dtd">
<svg version="1.0" xmlns="http://www.w3.org/2000/svg"
 width="263.000000pt" height="109.000000pt" viewBox="0 0 263.000000 109.000000"
 preserveAspectRatio="xMidYMid meet">
<metadata>
Created by potrace 1.16, written by Peter Selinger 2001-2019
</metadata>
<g transform="translate(0.000000,109.000000) scale(0.100000,-0.100000)"
fill="#000000" stroke="none">
<path d="M2150 910 l0 -180 -340 0 c-220 0 -340 -4 -340 -10 0 -6 120 -10 340
-10 l340 0 0 -344 c0 -219 4 -347 10 -351 7 -4 10 113 10 344 l0 351 225 0
c143 0 225 4 225 10 0 6 -82 10 -225 10 l-225 0 0 180 c0 113 -4 180 -10 180
-6 0 -10 -67 -10 -180z"/>
<path d="M908 843 c-38 -4 -38 -5 -38 -49 0 -27 5 -46 13 -48 88 -24 117 -59
117 -146 0 -74 -28 -119 -88 -140 -41 -14 -42 -15 -42 -60 0 -41 -1 -43 -13
-23 -65 118 -223 383 -228 383 -5 0 -225 -372 -237 -402 -2 -5 1 -8 6 -8 6 0
31 36 57 80 l46 81 107 -3 107 -3 43 -77 c41 -72 47 -78 76 -78 18 0 37 -5 42
-10 7 -7 100 -9 260 -8 l249 3 3 258 2 257 -222 -2 c-123 -1 -240 -3 -260 -5z
m-251 -238 l41 -75 -93 0 -94 0 36 63 c41 70 53 87 62 87 3 0 25 -34 48 -75z"/>
<path d="M870 595 c0 -80 4 -125 10 -125 6 0 22 11 35 25 22 21 25 33 25 95 0
87 -19 129 -57 130 -10 0 -13 -32 -13 -125z"/>
</g>
</svg>
